# xmcd
#
# Track frame offsets: 
#        150
#        13827
#        31852
#        48791
#        66212
#        85139
#
# Disc length: 1380 seconds
#
# Revision: 0
# Processed by: cddbd v1.5.2PL0 Copyright (c) Steve Scherf et al.
# Submitted via: ExactAudioCopy v0.95b4
#
DISCID=40056206
DTITLE=Daisy Chain - Daisy Chain
DYEAR=1998
DGENRE=
TTITLE0=du und ich
TTITLE1=the one
TTITLE2=nimm mich auf
TTITLE3=midnight
TTITLE4=walking down
TTITLE5=smile
EXTD=
EXTT0=
EXTT1=
EXTT2=
EXTT3=
EXTT4=
EXTT5=
PLAYORDER=
